<svg xmlns="http://www.w3.org/2000/svg" xmlns:xlink="http://www.w3.org/1999/xlink" width="800" zoomAndPan="magnify" viewBox="0 0 600 449.999984" height="600" preserveAspectRatio="xMidYMid meet" version="1.0"><defs><clipPath id="c5310c74be"><path d="M 110.71875 238 L 489.46875 238 L 489.46875 450 L 110.71875 450 Z M 110.71875 238 " clip-rule="nonzero"/></clipPath><clipPath id="a384df58c5"><path d="M 328.234375 49 L 349.605469 49 L 349.605469 396.453125 L 328.234375 396.453125 Z M 328.234375 49 " clip-rule="nonzero"/></clipPath><clipPath id="1a62283c25"><path d="M 363.316406 61 L 384.691406 61 L 384.691406 408.351562 L 363.316406 408.351562 Z M 363.316406 61 " clip-rule="nonzero"/></clipPath><clipPath id="daed6637e7"><path d="M 211.347656 180 L 227.492188 180 L 227.492188 441.257812 L 211.347656 441.257812 Z M 211.347656 180 " clip-rule="nonzero"/></clipPath><clipPath id="2a3efc609b"><path d="M 185.191406 189 L 201.335938 189 L 201.335938 450 L 185.191406 450 Z M 185.191406 189 " clip-rule="nonzero"/></clipPath><clipPath id="5c61cf97ea"><path d="M 354 125 L 489.46875 125 L 489.46875 420 L 354 420 Z M 354 125 " clip-rule="nonzero"/></clipPath><clipPath id="a7a84e3ac1"><path d="M 404.351562 195 L 419.234375 195 L 419.234375 420.882812 L 404.351562 420.882812 Z M 404.351562 195 " clip-rule="nonzero"/></clipPath><clipPath id="9d58fa83a9"><path d="M 428.523438 204 L 443.402344 204 L 443.402344 446.125 L 428.523438 446.125 Z M 428.523438 204 " clip-rule="nonzero"/></clipPath></defs><path fill="#f6931e" d="M 454.226562 345.882812 C 440.15625 356.972656 421.757812 368.058594 400.023438 378.15625 C 398.039062 379.148438 395.964844 380.136719 393.710938 380.949219 C 392.988281 381.21875 392.175781 381.671875 391.453125 381.941406 C 378.105469 387.980469 363.496094 393.570312 348.074219 398.527344 C 338.242188 401.773438 328.140625 404.835938 317.589844 407.632812 C 316.867188 407.902344 315.785156 408.171875 315.066406 408.351562 C 314.523438 408.625 314.074219 408.625 313.53125 408.894531 C 306.949219 410.695312 300.183594 412.140625 293.601562 413.671875 C 291.617188 414.210938 289.542969 414.394531 287.558594 414.933594 C 271.414062 418.179688 255.539062 420.703125 240.660156 422.234375 C 239.667969 422.234375 238.855469 422.503906 237.863281 422.503906 C 213.421875 424.757812 191.234375 424.757812 172.835938 422.503906 C 142.082031 418.71875 121.429688 408.625 117.191406 392.578125 C 111.871094 372.476562 133.785156 347.234375 172.835938 324.609375 C 191.234375 313.792969 213.691406 303.425781 238.3125 294.410156 C 238.855469 294.140625 239.304688 293.871094 240.117188 293.871094 C 244.175781 292.335938 248.414062 290.804688 252.746094 289.632812 C 262.847656 286.386719 272.945312 283.324219 283.769531 280.527344 C 285.03125 280.257812 286.292969 279.808594 287.828125 279.539062 C 296.394531 277.285156 304.691406 275.480469 312.992188 273.769531 C 313.710938 273.496094 314.792969 273.496094 315.515625 273.226562 C 326.609375 270.972656 337.433594 269.171875 347.984375 267.726562 C 363.316406 265.746094 378.195312 264.484375 391.816406 264.210938 C 392.355469 264.210938 392.539062 264.210938 393.078125 264.210938 C 395.332031 264.210938 397.585938 264.210938 399.84375 264.210938 C 421.21875 264.484375 439.617188 266.738281 454.046875 271.242188 C 470.460938 276.5625 481.011719 284.855469 483.988281 295.671875 C 488.316406 310.097656 476.683594 328.035156 454.226562 345.882812 Z M 454.226562 345.882812 " fill-opacity="1" fill-rule="nonzero"/><g clip-path="url(#c5310c74be)"><path stroke-linecap="butt" transform="matrix(0.901889, 0, 0, 0.901442, -158.155933, -212.019197)" fill="none" stroke-linejoin="miter" d="M 679.000107 618.899396 C 663.399165 631.201731 642.999266 643.499733 618.900532 654.701402 C 616.700288 655.802069 614.400427 656.898402 611.901331 657.799736 C 611.100061 658.098736 610.199174 658.601403 609.397904 658.900403 C 594.598232 665.599737 578.399586 671.800738 561.300053 677.299739 C 550.398451 680.90074 539.197997 684.298073 527.499456 687.400741 C 526.698186 687.699741 525.498447 687.998741 524.701508 688.198074 C 524.099473 688.501407 523.601386 688.501407 522.999351 688.800407 C 515.701298 690.798074 508.199679 692.401408 500.901626 694.100075 C 498.701382 694.698075 496.401521 694.901742 494.201277 695.499742 C 476.300474 699.100742 458.698523 701.900076 442.201025 703.598743 C 441.100903 703.598743 440.200016 703.897743 439.099894 703.897743 C 411.999646 706.398077 387.398494 706.398077 366.998595 703.897743 C 332.899146 699.698743 310.000151 688.501407 305.300811 670.700071 C 299.401732 648.400734 323.699701 620.39873 366.998595 595.300059 C 387.398494 583.301057 412.298498 571.800389 439.597981 561.799054 C 440.200016 561.500054 440.698103 561.201053 441.59899 561.201053 C 446.099095 559.498053 450.798435 557.799386 455.601723 556.499386 C 466.802177 552.898385 477.9983 549.501052 490.000024 546.398384 C 491.398998 546.099384 492.797972 545.601051 494.500129 545.302051 C 503.998426 542.801717 513.197871 540.799717 522.401647 538.901717 C 523.198586 538.598383 524.398325 538.598383 525.199595 538.299383 C 537.500171 535.799049 549.501895 533.801382 561.200436 532.198049 C 578.200352 530.001048 594.69785 528.601382 609.800705 528.298048 C 610.398409 528.298048 610.601975 528.298048 611.199679 528.298048 C 613.698775 528.298048 616.19787 528.298048 618.701298 528.298048 C 642.401562 528.601382 662.801461 531.101715 678.800873 536.098049 C 697.000528 542.00005 708.699068 551.199719 711.999434 563.19872 C 716.798391 579.201723 703.900111 599.100393 679.000107 618.899396 Z M 679.000107 618.899396 " stroke="#ffffff" stroke-width="2" stroke-opacity="1" stroke-miterlimit="10"/></g><path stroke-linecap="butt" transform="matrix(0.901889, 0, 0, 0.901442, -158.155933, -212.019197)" fill-opacity="1" fill="#2e3192" fill-rule="nonzero" stroke-linejoin="miter" d="M 526.498952 236.998334 L 526.498952 239.199668 L 525.702013 536.999383 L 525.39883 587.599724 L 525.099978 687.600074 C 524.497942 687.899074 523.999856 687.899074 523.402152 688.198074 C 516.099767 690.200074 508.598149 691.799075 501.300096 693.502075 L 494.599747 691.500075 L 456.000193 680.601739 L 456.000193 281.098675 L 521.401143 240.300335 L 524.497942 238.298335 Z M 526.498952 236.998334 " stroke="#ffffff" stroke-width="2" stroke-opacity="1" stroke-miterlimit="10"/><path stroke-linecap="butt" transform="matrix(0.901889, 0, 0, 0.901442, -158.155933, -212.019197)" fill-opacity="1" fill="#f6931e" fill-rule="nonzero" stroke-linejoin="miter" d="M 619.199384 281.701008 L 619.199384 654.701402 C 616.99914 655.802069 614.699279 656.898402 612.200183 657.799736 C 611.398913 658.098736 610.498026 658.601403 609.701087 658.900403 C 594.901415 665.599737 578.698438 671.800738 561.598905 677.299739 C 550.701634 680.90074 539.50118 684.298073 527.798308 687.400741 C 527.00137 687.699741 525.80163 687.998741 525.00036 688.198074 C 524.398325 688.501407 523.900238 688.501407 523.298203 688.800407 L 522.700499 538.498716 L 521.301525 240.998002 L 521.301525 237.600668 L 524.398325 239.000335 L 526.598569 240.101001 Z M 619.199384 281.701008 " stroke="#ffffff" stroke-width="3" stroke-opacity="1" stroke-miterlimit="10"/><g clip-path="url(#a384df58c5)"><path fill="#ffffff" d="M 315.96875 471.273438 L 402.097656 471.273438 L 402.097656 89.511719 L 314.164062 49.21875 Z M 315.96875 471.273438 " fill-opacity="1" fill-rule="nonzero"/></g><g clip-path="url(#1a62283c25)"><path fill="#ffffff" d="M 350.960938 483.171875 L 437.089844 483.171875 L 437.089844 101.320312 L 349.15625 61.027344 Z M 350.960938 483.171875 " fill-opacity="1" fill-rule="nonzero"/></g><path stroke-linecap="butt" transform="matrix(0.901889, 0, 0, 0.901442, -158.155933, -212.019197)" fill-opacity="1" fill="#2e3192" fill-rule="nonzero" stroke-linejoin="miter" d="M 494.599747 428.700699 L 494.599747 694.901742 C 476.698944 698.498409 459.101324 701.302076 442.599495 703.000743 L 442.300643 659.099736 L 442.001791 560.499053 L 441.399755 395.399027 L 455.601723 404.299695 Z M 494.599747 428.700699 " stroke="#ffffff" stroke-width="2" stroke-opacity="1" stroke-miterlimit="10"/><path stroke-linecap="butt" transform="matrix(0.901889, 0, 0, 0.901442, -158.155933, -212.019197)" fill-opacity="1" fill="#f6931e" fill-rule="nonzero" stroke-linejoin="miter" d="M 441.300138 395.399027 L 440.498868 561.101387 L 439.901164 703.299743 C 412.800916 705.800077 388.199764 705.800077 367.799865 703.299743 L 367.799865 428.900032 Z M 441.300138 395.399027 " stroke="#ffffff" stroke-width="3" stroke-opacity="1" stroke-miterlimit="10"/><g clip-path="url(#daed6637e7)"><path fill="#ffffff" d="M 236.78125 497.507812 L 172.027344 497.507812 L 172.027344 210.398438 L 238.3125 180.199219 Z M 236.78125 497.507812 " fill-opacity="1" fill-rule="nonzero"/></g><g clip-path="url(#2a3efc609b)"><path fill="#ffffff" d="M 210.625 506.519531 L 145.601562 506.519531 L 145.601562 219.5 L 211.890625 189.210938 Z M 210.625 506.519531 " fill-opacity="1" fill-rule="nonzero"/></g><path stroke-linecap="butt" transform="matrix(0.901889, 0, 0, 0.901442, -158.155933, -212.019197)" fill-opacity="1" fill="#2e3192" fill-rule="nonzero" stroke-linejoin="miter" d="M 610.601975 416.60203 L 610.298791 527.500715 L 609.701087 658.800736 C 594.901415 665.50007 578.698438 671.701071 561.598905 677.200072 L 561.598905 447.399035 Z M 610.601975 416.60203 " stroke="#ffffff" stroke-width="2" stroke-opacity="1" stroke-miterlimit="10"/><path fill="#f6931e" d="M 454.226562 191.464844 L 454.226562 345.882812 C 440.15625 356.972656 421.757812 368.058594 400.023438 378.15625 C 398.039062 379.148438 395.964844 380.136719 393.710938 380.949219 L 393.167969 263.582031 L 392.628906 163.613281 L 399.664062 166.855469 Z M 454.226562 191.464844 " fill-opacity="1" fill-rule="nonzero"/><g clip-path="url(#5c61cf97ea)"><path stroke-linecap="butt" transform="matrix(0.901889, 0, 0, 0.901442, -158.155933, -212.019197)" fill="none" stroke-linejoin="miter" d="M 679.000107 447.598368 L 679.000107 618.899396 C 663.399165 631.201731 642.999266 643.499733 618.900532 654.701402 C 616.700288 655.802069 614.400427 656.898402 611.901331 657.799736 L 611.299296 527.600381 L 610.701592 416.701697 L 618.502063 420.298364 Z M 679.000107 447.598368 " stroke="#ffffff" stroke-width="3" stroke-opacity="1" stroke-miterlimit="10"/></g><g clip-path="url(#a7a84e3ac1)"><path fill="#ffffff" d="M 395.785156 469.832031 L 455.757812 469.832031 L 455.757812 221.484375 L 394.519531 195.523438 Z M 395.785156 469.832031 " fill-opacity="1" fill-rule="nonzero"/></g><g clip-path="url(#9d58fa83a9)"><path fill="#ffffff" d="M 419.953125 498.226562 L 479.929688 498.226562 L 479.929688 232.84375 L 418.691406 204.898438 Z M 419.953125 498.226562 " fill-opacity="1" fill-rule="nonzero"/></g></svg>